<?xml version="1.0" encoding="UTF-8"?>
<!DOCTYPE svg PUBLIC "-//W3C//DTD SVG 1.1//EN" "http://www.w3.org/Graphics/SVG/1.1/DTD/svg11.dtd">
<svg xmlns="http://www.w3.org/2000/svg" version="1.1" width="512px" height="512px" style="shape-rendering:geometricPrecision; text-rendering:geometricPrecision; image-rendering:optimizeQuality; fill-rule:evenodd; clip-rule:evenodd" xmlns:xlink="http://www.w3.org/1999/xlink">
<g><path style="opacity:1" fill="#212428" d="M -0.5,-0.5 C 170.167,-0.5 340.833,-0.5 511.5,-0.5C 511.5,170.167 511.5,340.833 511.5,511.5C 340.833,511.5 170.167,511.5 -0.5,511.5C -0.5,340.833 -0.5,170.167 -0.5,-0.5 Z"/></g>
<g><path style="opacity:1" fill="#2c2810" d="M 278.5,111.5 C 275.119,111.54 271.786,111.207 268.5,110.5C 263.845,109.834 259.012,109.501 254,109.5C 246.93,109.303 240.097,109.97 233.5,111.5C 233.167,111.5 232.833,111.5 232.5,111.5C 232.881,110.069 233.881,109.236 235.5,109C 249.541,108.112 263.541,108.446 277.5,110C 278.056,110.383 278.389,110.883 278.5,111.5 Z"/></g>
<g><path style="opacity:1" fill="#ad931e" d="M 268.5,110.5 C 256.819,110.434 245.152,110.767 233.5,111.5C 240.097,109.97 246.93,109.303 254,109.5C 259.012,109.501 263.845,109.834 268.5,110.5 Z"/></g>
<g><path style="opacity:1" fill="#fccb04" d="M 268.5,110.5 C 271.786,111.207 275.119,111.54 278.5,111.5C 284.095,112.886 289.762,113.886 295.5,114.5C 300.481,117.054 305.814,119.054 311.5,120.5C 317.943,123.44 324.276,126.773 330.5,130.5C 322.968,135.098 315.302,139.432 307.5,143.5C 304.304,144.929 301.304,146.595 298.5,148.5C 294.471,150.184 290.471,151.851 286.5,153.5C 231.071,140.976 188.904,158.976 160,207.5C 157.298,212.563 155.464,217.897 154.5,223.5C 152.926,225.102 152.259,227.102 152.5,229.5C 143.535,267.251 152.035,300.585 178,329.5C 195.773,310.057 213.94,290.891 232.5,272C 213.323,261.247 194.323,250.247 175.5,239C 246.559,200.806 317.559,162.64 388.5,124.5C 390.027,124.573 391.027,123.906 391.5,122.5C 394.052,121.307 396.552,119.973 399,118.5C 399.667,119.167 399.667,119.833 399,120.5C 385.994,131.342 373.161,142.342 360.5,153.5C 381.125,174.413 394.125,199.413 399.5,228.5C 399.28,233.1 399.946,237.433 401.5,241.5C 405.418,285.748 392.418,324.081 362.5,356.5C 358.5,359.833 354.833,363.5 351.5,367.5C 331.742,384.042 309.075,394.709 283.5,399.5C 277.368,400.507 271.368,401.507 265.5,402.5C 248.26,403.876 231.594,401.876 215.5,396.5C 209.976,394.15 204.309,391.984 198.5,390C 198.833,389.667 199.167,389.333 199.5,389C 197.744,388.798 196.078,388.298 194.5,387.5C 195.504,385.323 194.838,384.989 192.5,386.5C 190.571,385.62 188.737,384.62 187,383.5C 186.617,381.963 185.784,380.63 184.5,379.5C 184.863,378.817 185.196,378.15 185.5,377.5C 195.453,370.883 205.786,364.716 216.5,359C 218.677,357.798 221.011,357.298 223.5,357.5C 245.934,365.759 268.268,365.425 290.5,356.5C 317.106,347.414 337.272,330.414 351,305.5C 357.357,292.588 361.19,278.922 362.5,264.5C 364.072,254.045 363.406,243.712 360.5,233.5C 356.529,214.906 348.196,198.572 335.5,184.5C 334.409,183.112 333.076,182.612 331.5,183C 313.652,201.015 295.985,219.181 278.5,237.5C 294.704,248.538 311.037,259.372 327.5,270C 328.833,270.667 328.833,271.333 327.5,272C 256.544,311.972 185.544,351.639 114.5,391C 126.649,380.352 138.649,369.518 150.5,358.5C 129.8,336.099 116.8,309.765 111.5,279.5C 111.167,276.833 110.833,274.167 110.5,271.5C 110.345,258.815 110.678,246.149 111.5,233.5C 111.5,231.5 111.5,229.5 111.5,227.5C 113.074,225.898 113.741,223.898 113.5,221.5C 128.665,166.834 163.332,131.001 217.5,114C 222.468,112.921 227.468,112.088 232.5,111.5C 232.833,111.5 233.167,111.5 233.5,111.5C 245.152,110.767 256.819,110.434 268.5,110.5 Z"/></g>
<g><path style="opacity:1" fill="#413a0b" d="M 295.5,114.5 C 299.212,115.028 302.879,115.862 306.5,117C 308.431,117.902 310.097,119.069 311.5,120.5C 305.814,119.054 300.481,117.054 295.5,114.5 Z"/></g>
<g><path style="opacity:1" fill="#68500e" d="M 391.5,122.5 C 391.027,123.906 390.027,124.573 388.5,124.5C 388.973,123.094 389.973,122.427 391.5,122.5 Z"/></g>
<g><path style="opacity:1" fill="#322e0c" d="M 307.5,143.5 C 305.509,146.794 302.509,148.461 298.5,148.5C 301.304,146.595 304.304,144.929 307.5,143.5 Z"/></g>
<g><path style="opacity:1" fill="#69510b" d="M 113.5,221.5 C 113.741,223.898 113.074,225.898 111.5,227.5C 111.259,225.102 111.926,223.102 113.5,221.5 Z"/></g>
<g><path style="opacity:1" fill="#372f07" d="M 154.5,223.5 C 154.741,225.898 154.074,227.898 152.5,229.5C 152.259,227.102 152.926,225.102 154.5,223.5 Z"/></g>
<g><path style="opacity:1" fill="#b59822" d="M 399.5,228.5 C 401.054,232.567 401.72,236.9 401.5,241.5C 399.946,237.433 399.28,233.1 399.5,228.5 Z"/></g>
<g><path style="opacity:1" fill="#7a6718" d="M 360.5,233.5 C 363.406,243.712 364.072,254.045 362.5,264.5C 362.614,254.107 361.948,243.773 360.5,233.5 Z"/></g>
<g><path style="opacity:1" fill="#c8ab27" d="M 111.5,233.5 C 110.678,246.149 110.345,258.815 110.5,271.5C 109.507,262.682 109.173,253.682 109.5,244.5C 109.646,240.613 110.313,236.946 111.5,233.5 Z"/></g>
<g><path style="opacity:1" fill="#393013" d="M 109.5,244.5 C 109.173,253.682 109.507,262.682 110.5,271.5C 110.833,274.167 111.167,276.833 111.5,279.5C 110.883,279.611 110.383,279.944 110,280.5C 109.667,279.167 109.333,277.833 109,276.5C 108.175,265.659 108.341,254.992 109.5,244.5 Z"/></g>
<g><path style="opacity:1" fill="#302c1d" d="M 290.5,356.5 C 268.268,365.425 245.934,365.759 223.5,357.5C 225.848,357.67 228.182,358.003 230.5,358.5C 235.541,356.22 240.541,356.053 245.5,358C 242.167,358.333 238.833,358.667 235.5,359C 248.67,361.856 262.004,362.189 275.5,360C 272.289,358.847 268.956,358.18 265.5,358C 270.639,355.983 275.805,356.15 281,358.5C 281.833,358.167 282.667,357.833 283.5,357.5C 282.167,356.833 280.833,356.167 279.5,355.5C 280.5,355.167 281.5,354.833 282.5,354.5C 285.067,355.664 287.734,356.33 290.5,356.5 Z"/></g>
<g><path style="opacity:1" fill="#2f2d1a" d="M 362.5,356.5 C 362.586,357.496 362.252,358.329 361.5,359C 362.167,359.333 362.833,359.667 363.5,360C 359.3,361.603 355.3,364.103 351.5,367.5C 354.833,363.5 358.5,359.833 362.5,356.5 Z"/></g>
<g><path style="opacity:1" fill="#d7b61d" d="M 185.5,377.5 C 185.196,378.15 184.863,378.817 184.5,379.5C 185.784,380.63 186.617,381.963 187,383.5C 188.737,384.62 190.571,385.62 192.5,386.5C 194.838,384.989 195.504,385.323 194.5,387.5C 196.078,388.298 197.744,388.798 199.5,389C 199.167,389.333 198.833,389.667 198.5,390C 204.309,391.984 209.976,394.15 215.5,396.5C 202.946,393.892 191.279,389.059 180.5,382C 179.167,381.333 179.167,380.667 180.5,380C 182.078,378.906 183.745,378.072 185.5,377.5 Z"/></g>
<g><path style="opacity:1" fill="#4f4115" d="M 283.5,399.5 C 282.666,400.748 281.333,401.415 279.5,401.5C 274.859,402.231 270.193,402.564 265.5,402.5C 271.368,401.507 277.368,400.507 283.5,399.5 Z"/></g>
</svg>
